<?xml version="1.0" standalone="no"?>
<!DOCTYPE svg PUBLIC "-//W3C//DTD SVG 20010904//EN"
 "http://www.w3.org/TR/2001/REC-SVG-20010904/DTD/svg10.dtd">
<svg version="1.0" xmlns="http://www.w3.org/2000/svg"
 width="512.000000pt" height="512.000000pt" viewBox="0 0 512.000000 512.000000"
 preserveAspectRatio="xMidYMid meet">

<g transform="translate(0.000000,512.000000) scale(0.100000,-0.100000)"
fill="#000000" stroke="none">
<path d="M1810 5106 c-369 -49 -693 -181 -993 -408 -104 -78 -294 -269 -374
-374 -191 -252 -325 -554 -385 -872 -20 -101 -23 -150 -23 -357 0 -271 14
-372 80 -590 138 -456 461 -875 868 -1127 196 -122 436 -218 655 -263 433 -88
848 -41 1270 146 l52 23 598 -596 c576 -574 600 -597 672 -631 165 -78 331
-75 491 9 95 50 273 232 316 324 75 158 71 339 -9 494 -27 51 -127 156 -617
648 l-585 588 52 107 c133 280 193 550 193 868 0 336 -68 625 -215 912 -268
525 -746 907 -1311 1052 -211 54 -527 74 -735 47z m515 -390 c129 -23 202 -44
325 -91 449 -174 809 -554 961 -1017 103 -312 109 -658 19 -968 -177 -610
-683 -1060 -1310 -1167 -120 -20 -393 -23 -510 -4 -369 59 -689 225 -945 492
-241 252 -384 543 -441 899 -22 144 -15 423 16 565 68 319 213 590 438 819
268 274 601 437 989 486 94 12 361 4 458 -14z m2371 -4018 c19 -37 18 -118 -2
-148 -32 -47 -119 -132 -156 -151 -44 -23 -87 -24 -131 -5 -18 8 -265 248
-575 558 l-543 544 63 50 c35 28 106 96 158 152 l95 100 538 -536 c296 -295
545 -549 553 -564z"/>
</g>
</svg>
